999
FreeCAD v0.19 24291 (Git)
  0
SECTION
  2
HEADER
  9
$ACADVER
  1
AC1014
  9
$ACADMAINTVER
 70
     9
  9
$DWGCODEPAGE
  3
ANSI_1252
  9
$TEXTSTYLE
  7
STANDARD
  9
$DIMSTYLE
  2
STANDARD
  9
$DIMTXSTY
  7
STANDARD
  9
$CMLSTYLE
  2
STANDARD
  9
$PEXTMAX
 10
50
 20
50
 30
50
  9
$PEXTMIN
 10
0
 20
0
 30
0
  9
$HANDSEED
  5
FFFF
  0
ENDSEC
  0
SECTION
  2
CLASSES
  0
CLASS
  1
ACDBDICTIONARYWDFLT
  2
AcDbDictionaryWithDefault
  3
ObjectDBX Classes
 90
        0
280
     0
281
     0
  0
CLASS
  1
XRECORD
  2
AcDbXrecord
  3
ObjectDBX Classes
 90
        0
280
     0
281
     0
  0
CLASS
  1
LWPOLYLINE
  2
AcDbPolyline
  3
ObjectDBX Classes
 90
        0
280
     0
281
     1
  0
ENDSEC
  0
SECTION
  2
TABLES
  0
TABLE
  2
VPORT
  5
20
330
0
100
AcDbSymbolTable
 70
     1
  0
VPORT
  5
21
330
20
100
AcDbSymbolTableRecord
100
AcDbViewportTableRecord
  2
*ACTIVE
 70
     0
  0
ENDTAB
  0
TABLE
  2
LTYPE
  5
22
330
0
100
AcDbSymbolTable
 70
     1
  0
LTYPE
  5
23
330
21
100
AcDbSymbolTableRecord
100
AcDbLinetypeTableRecord
  2
BYBLOCK
 70
     0
  3

 72
    65
 73
     0
 40
0.0
  0
LTYPE
  5
24
330
21
100
AcDbSymbolTableRecord
100
AcDbLinetypeTableRecord
  2
BYLAYER
 70
     0
  3

 72
    65
 73
     0
 40
0.0
  0
LTYPE
  5
25
330
21
100
AcDbSymbolTableRecord
100
AcDbLinetypeTableRecord
  2
CONTINUOUS
 70
     0
  3
Solid line
 72
    65
 73
     0
 40
0.0
  0
ENDTAB
  0
TABLE
  2
LAYER
  5
A60
330
0
100
AcDbSymbolTable
 70
5
  0
LAYER
  5
A61
330
A60
100
AcDbSymbolTableRecord
100
AcDbLayerTableRecord
  2
0
 70
   0
 62
   7
  6
CONTINUOUS
  0
LAYER
  5
A62
330
A60
100
AcDbSymbolTableRecord
100
AcDbLayerTableRecord
  2
View001
 70
    0
 62
    7
  6
CONTINUOUS
  0
LAYER
  5
A63
330
A60
100
AcDbSymbolTableRecord
100
AcDbLayerTableRecord
  2
View002
 70
    0
 62
    7
  6
CONTINUOUS
  0
LAYER
  5
A64
330
A60
100
AcDbSymbolTableRecord
100
AcDbLayerTableRecord
  2
View003
 70
    0
 62
    7
  6
CONTINUOUS
  0
LAYER
  5
A65
330
A60
100
AcDbSymbolTableRecord
100
AcDbLayerTableRecord
  2
View
 70
    0
 62
    7
  6
CONTINUOUS
  0
ENDTAB
  0
TABLE
  2
STYLE
  5
70
330
0
100
AcDbSymbolTable
 70
     2
  0
STYLE
  5
71
330
70
100
AcDbSymbolTableRecord
100
AcDbTextStyleTableRecord
  2
STANDARD
 70
     0
 40
0.0
 41
1.0
 50
0.0
 71
     0
 42
2.5
  3
arial.ttf
  4

  0
STYLE
  5
72
330
70
100
AcDbSymbolTableRecord
100
AcDbTextStyleTableRecord
  2
ANNOTATIVE
 70
     0
 40
0.0
 41
1.0
 50
0.0
 71
     0
 42
2.5
  3
arial.ttf
  4

  0
ENDTAB
  0
TABLE
  2
VIEW
  5
73
330
0
100
AcDbSymbolTable
 70
     0
  0
ENDTAB
  0
TABLE
  2
UCS
  5
74
330
0
100
AcDbSymbolTable
 70
     0
  0
ENDTAB
  0
TABLE
  2
APPID
  5
75
330
0
100
AcDbSymbolTable
 70
     2
  0
APPID
  5
76
330
75
100
AcDbSymbolTableRecord
100
AcDbRegAppTableRecord
  2
ACAD
 70
     0
  0
APPID
  5
77
330
75
100
AcDbSymbolTableRecord
100
AcDbRegAppTableRecord
  2
ACADANNOTATIVE
 70
     0
  0
ENDTAB
  0
TABLE
  2
DIMSTYLE
  5
78
330
0
100
AcDbSymbolTable
 70
     2
  0
DIMSTYLE
105
79
330
78
100
AcDbSymbolTableRecord
100
AcDbDimStyleTableRecord
  2
STANDARD
 70
     0
  3

  4

  5

  6

  7

 40
0.0
 41
2.5
 42
0.625
 43
3.75
 44
1.25
 45
0.0
 46
0.0
 47
0.0
 48
0.0
140
2.5
141
2.5
142
0.0
143
0.03937007874016
144
1.0
145
0.0
146
1.0
147
0.625
 71
     0
 72
     0
 73
     0
 74
     0
 75
     0
 76
     0
 77
     1
 78
     8
170
     0
171
     3
172
     1
173
     0
174
     0
175
     0
176
     0
177
     0
178
     0
270
     2
271
     2
272
     2
273
     2
274
     3
340
71
275
     0
280
     0
281
     0
282
     0
283
     0
284
     8
285
     0
286
     0
287
     3
288
     0
  0
ENDTAB
  0
TABLE
  2
BLOCK_RECORD
  5
A01
330
0
100
AcDbSymbolTable
  70
5
  0
BLOCK_RECORD
  5
A02
330
A01
100
AcDbSymbolTableRecord
100
AcDbBlockTableRecord
  2
*MODEL_SPACE
  0
BLOCK_RECORD
  5
A03
330
A01
100
AcDbSymbolTableRecord
100
AcDbBlockTableRecord
  2
*PAPER_SPACE
  0
ENDTAB
  0
ENDSEC
  0
SECTION
  2
BLOCKS
  0
BLOCK
  5
A04
330
A02
100
AcDbEntity
  8
0
100
AcDbBlockBegin
  2
*MODEL_SPACE
 70
   0
 10
0
 20
0
 30
0
  3
*MODEL_SPACE
  1
 
  0
ENDBLK
  5
A05
330
A02
100
AcDbEntity
  8
0
100
AcDbBlockEnd
  0
BLOCK
  5
A06
330
A03
100
AcDbEntity
 67
1
  8
0
100
AcDbBlockBegin
  2
*PAPER_SPACE
 70
   0
 10
0
 20
0
 30
0
  3
*PAPER_SPACE
  1
 
  0
ENDBLK
  5
A07
330
A03
100
AcDbEntity
 67
    1
  8
0
100
AcDbBlockEnd
  0
ENDSEC
  0
SECTION
  2
ENTITIES
  0
SPLINE
  5
A08
330
A02
100
AcDbEntity
  8
View001
100
AcDbSpline
210
0
220
0
230
1
 70
8
 71
1
 72
4
 73
2
 74
0
 40
0
 40
0
 40
500
 40
500
 10
525
 20
-564.436
 30
0
 10
1025
 20
-564.436
 30
0
  0
SPLINE
  5
A09
330
A02
100
AcDbEntity
  8
View001
100
AcDbSpline
210
0
220
0
230
1
 70
8
 71
1
 72
4
 73
2
 74
0
 40
0
 40
0
 40
200
 40
200
 10
1025
 20
-564.436
 30
0
 10
1025
 20
-364.436
 30
0
  0
SPLINE
  5
A0A
330
A02
100
AcDbEntity
  8
View001
100
AcDbSpline
210
0
220
0
230
1
 70
8
 71
3
 72
29
 73
25
 74
0
 40
3.08851
 40
3.08851
 40
3.08851
 40
3.08851
 40
3.1814
 40
3.1814
 40
3.1814
 40
3.2743
 40
3.2743
 40
3.2743
 40
3.36719
 40
3.36719
 40
3.36719
 40
3.46008
 40
3.46008
 40
3.46008
 40
3.55298
 40
3.55298
 40
3.55298
 40
3.64587
 40
3.64587
 40
3.64587
 40
3.73877
 40
3.73877
 40
3.73877
 40
3.83166
 40
3.83166
 40
3.83166
 40
3.83166
 10
725
 20
545.436
 30
0
 10
722.881
 20
505.574
 30
0
 10
722.558
 20
465.273
 30
0
 10
724.115
 20
424.779
 30
0
 10
725.67
 20
384.285
 30
0
 10
729.105
 20
343.598
 30
0
 10
734.461
 20
302.982
 30
0
 10
739.815
 20
262.367
 30
0
 10
747.09
 20
221.822
 30
0
 10
756.274
 20
181.62
 30
0
 10
765.457
 20
141.417
 30
0
 10
776.55
 20
101.557
 30
0
 10
789.493
 20
62.3068
 30
0
 10
802.433
 20
23.0558
 30
0
 10
817.223
 20
-15.585
 30
0
 10
833.753
 20
-53.3654
 30
0
 10
850.281
 20
-91.1467
 30
0
 10
868.548
 20
-128.067
 30
0
 10
888.401
 20
-163.902
 30
0
 10
908.253
 20
-199.738
 30
0
 10
929.69
 20
-234.489
 30
0
 10
952.524
 20
-267.967
 30
0
 10
975.358
 20
-301.446
 30
0
 10
999.588
 20
-333.651
 30
0
 10
1025
 20
-364.436
 30
0
  0
SPLINE
  5
A0B
330
A02
100
AcDbEntity
  8
View001
100
AcDbSpline
210
0
220
0
230
1
 70
8
 71
1
 72
4
 73
2
 74
0
 40
0
 40
0
 40
19
 40
19
 10
725
 20
545.436
 30
0
 10
725
 20
564.436
 30
0
  0
SPLINE
  5
A0C
330
A02
100
AcDbEntity
  8
View001
100
AcDbSpline
210
0
220
0
230
1
 70
8
 71
1
 72
4
 73
2
 74
0
 40
0
 40
0
 40
200
 40
200
 10
725
 20
564.436
 30
0
 10
525
 20
564.436
 30
0
  0
SPLINE
  5
A0D
330
A02
100
AcDbEntity
  8
View001
100
AcDbSpline
210
0
220
0
230
1
 70
8
 71
1
 72
4
 73
2
 74
0
 40
0
 40
0
 40
1128.87
 40
1128.87
 10
525
 20
564.436
 30
0
 10
525
 20
-564.436
 30
0
  0
LINE
  5
A0E
330
A02
100
AcDbEntity
  8
View002
100
AcDbLine
 10
-501
 20
-564.435
 30
0
 11
-501
 21
564.435
 31
0
  0
LINE
  5
A0F
330
A02
100
AcDbEntity
  8
View002
100
AcDbLine
 10
-501
 20
-564.435
 30
0
 11
501
 21
-564.435
 31
0
  0
LINE
  5
A10
330
A02
100
AcDbEntity
  8
View002
100
AcDbLine
 10
-501
 20
564.435
 30
0
 11
501
 21
564.435
 31
0
  0
LINE
  5
A11
330
A02
100
AcDbEntity
  8
View002
100
AcDbLine
 10
501
 20
-564.435
 30
0
 11
501
 21
564.435
 31
0
  0
ARC
  5
A12
330
A02
100
AcDbEntity
  8
View002
100
AcDbCircle
 10
-245
 20
145
 30
0
 40
45
100
AcDbArc
 50
90
 51
180
  0
ARC
  5
A13
330
A02
100
AcDbEntity
  8
View002
100
AcDbCircle
 10
-295
 20
145
 30
0
 40
5
100
AcDbArc
 50
180
 51
2.18211e-11
  0
ARC
  5
A14
330
A02
100
AcDbEntity
  8
View002
100
AcDbCircle
 10
-245
 20
145
 30
0
 40
55
100
AcDbArc
 50
90
 51
180
  0
ARC
  5
A15
330
A02
100
AcDbEntity
  8
View002
100
AcDbCircle
 10
-245
 20
195
 30
0
 40
5
100
AcDbArc
 50
-90
 51
90
  0
LINE
  5
A16
330
A02
100
AcDbEntity
  8
View002
100
AcDbLine
 10
-290
 20
125
 30
0
 11
-290
 21
10
 31
0
  0
ARC
  5
A17
330
A02
100
AcDbEntity
  8
View002
100
AcDbCircle
 10
-295
 20
10
 30
0
 40
5
100
AcDbArc
 50
180
 51
7.57226e-12
  0
LINE
  5
A18
330
A02
100
AcDbEntity
  8
View002
100
AcDbLine
 10
-300
 20
125
 30
0
 11
-300
 21
10
 31
0
  0
ARC
  5
A19
330
A02
100
AcDbEntity
  8
View002
100
AcDbCircle
 10
-295
 20
125
 30
0
 40
5
100
AcDbArc
 50
2.76835e-12
 51
180
  0
LINE
  5
A1A
330
A02
100
AcDbEntity
  8
View002
100
AcDbLine
 10
-225
 20
200
 30
0
 11
-10
 21
200
 31
0
  0
ARC
  5
A1B
330
A02
100
AcDbEntity
  8
View002
100
AcDbCircle
 10
-10
 20
195
 30
0
 40
5
100
AcDbArc
 50
-90
 51
90
  0
LINE
  5
A1C
330
A02
100
AcDbEntity
  8
View002
100
AcDbLine
 10
-225
 20
190
 30
0
 11
-10
 21
190
 31
0
  0
ARC
  5
A1D
330
A02
100
AcDbEntity
  8
View002
100
AcDbCircle
 10
-225
 20
195
 30
0
 40
5
100
AcDbArc
 50
90
 51
-90
  0
LINE
  5
A1E
330
A02
100
AcDbEntity
  8
View002
100
AcDbLine
 10
-290
 20
-10
 30
0
 11
-290
 21
-125
 31
0
  0
ARC
  5
A1F
330
A02
100
AcDbEntity
  8
View002
100
AcDbCircle
 10
-295
 20
-125
 30
0
 40
5
100
AcDbArc
 50
-180
 51
-1.30276e-11
  0
LINE
  5
A20
330
A02
100
AcDbEntity
  8
View002
100
AcDbLine
 10
-300
 20
-10
 30
0
 11
-300
 21
-125
 31
0
  0
ARC
  5
A21
330
A02
100
AcDbEntity
  8
View002
100
AcDbCircle
 10
-295
 20
-10
 30
0
 40
5
100
AcDbArc
 50
-1.832e-12
 51
-180
  0
LINE
  5
A22
330
A02
100
AcDbEntity
  8
View002
100
AcDbLine
 10
10
 20
190
 30
0
 11
225
 21
190
 31
0
  0
ARC
  5
A23
330
A02
100
AcDbEntity
  8
View002
100
AcDbCircle
 10
10
 20
195
 30
0
 40
5
100
AcDbArc
 50
90
 51
-90
  0
LINE
  5
A24
330
A02
100
AcDbEntity
  8
View002
100
AcDbLine
 10
10
 20
200
 30
0
 11
225
 21
200
 31
0
  0
ARC
  5
A25
330
A02
100
AcDbEntity
  8
View002
100
AcDbCircle
 10
225
 20
195
 30
0
 40
5
100
AcDbArc
 50
-90
 51
90
  0
ARC
  5
A26
330
A02
100
AcDbEntity
  8
View002
100
AcDbCircle
 10
245
 20
145
 30
0
 40
45
100
AcDbArc
 50
7.23753e-14
 51
90
  0
ARC
  5
A27
330
A02
100
AcDbEntity
  8
View002
100
AcDbCircle
 10
245
 20
195
 30
0
 40
5
100
AcDbArc
 50
90
 51
-90
  0
ARC
  5
A28
330
A02
100
AcDbEntity
  8
View002
100
AcDbCircle
 10
245
 20
145
 30
0
 40
55
100
AcDbArc
 50
5.92161e-14
 51
90
  0
ARC
  5
A29
330
A02
100
AcDbEntity
  8
View002
100
AcDbCircle
 10
295
 20
145
 30
0
 40
5
100
AcDbArc
 50
-180
 51
-3.77799e-11
  0
LINE
  5
A2A
330
A02
100
AcDbEntity
  8
View002
100
AcDbLine
 10
290
 20
125
 30
0
 11
290
 21
10
 31
0
  0
ARC
  5
A2B
330
A02
100
AcDbEntity
  8
View002
100
AcDbCircle
 10
295
 20
125
 30
0
 40
5
100
AcDbArc
 50
-2.88235e-11
 51
-180
  0
LINE
  5
A2C
330
A02
100
AcDbEntity
  8
View002
100
AcDbLine
 10
300
 20
125
 30
0
 11
300
 21
10
 31
0
  0
ARC
  5
A2D
330
A02
100
AcDbEntity
  8
View002
100
AcDbCircle
 10
295
 20
10
 30
0
 40
5
100
AcDbArc
 50
180
 51
1.70376e-11
  0
LINE
  5
A2E
330
A02
100
AcDbEntity
  8
View002
100
AcDbLine
 10
300
 20
-10
 30
0
 11
300
 21
-125
 31
0
  0
ARC
  5
A2F
330
A02
100
AcDbEntity
  8
View002
100
AcDbCircle
 10
295
 20
-125
 30
0
 40
5
100
AcDbArc
 50
-180
 51
-3.28946e-11
  0
LINE
  5
A30
330
A02
100
AcDbEntity
  8
View002
100
AcDbLine
 10
290
 20
-10
 30
0
 11
290
 21
-125
 31
0
  0
ARC
  5
A31
330
A02
100
AcDbEntity
  8
View002
100
AcDbCircle
 10
295
 20
-10
 30
0
 40
5
100
AcDbArc
 50
-1.12973e-11
 51
-180
  0
ARC
  5
A32
330
A02
100
AcDbEntity
  8
View002
100
AcDbCircle
 10
-245
 20
-145
 30
0
 40
45
100
AcDbArc
 50
-180
 51
-90
  0
ARC
  5
A33
330
A02
100
AcDbEntity
  8
View002
100
AcDbCircle
 10
-245
 20
-195
 30
0
 40
5
100
AcDbArc
 50
-90
 51
90
  0
ARC
  5
A34
330
A02
100
AcDbEntity
  8
View002
100
AcDbCircle
 10
-245
 20
-145
 30
0
 40
55
100
AcDbArc
 50
-180
 51
-90
  0
ARC
  5
A35
330
A02
100
AcDbEntity
  8
View002
100
AcDbCircle
 10
-295
 20
-145
 30
0
 40
5
100
AcDbArc
 50
-9.77066e-12
 51
-180
  0
LINE
  5
A36
330
A02
100
AcDbEntity
  8
View002
100
AcDbLine
 10
-225
 20
-200
 30
0
 11
-10
 21
-200
 31
0
  0
ARC
  5
A37
330
A02
100
AcDbEntity
  8
View002
100
AcDbCircle
 10
-225
 20
-195
 30
0
 40
5
100
AcDbArc
 50
90
 51
-90
  0
LINE
  5
A38
330
A02
100
AcDbEntity
  8
View002
100
AcDbLine
 10
-225
 20
-190
 30
0
 11
-10
 21
-190
 31
0
  0
ARC
  5
A39
330
A02
100
AcDbEntity
  8
View002
100
AcDbCircle
 10
-10
 20
-195
 30
0
 40
5
100
AcDbArc
 50
-90
 51
90
  0
LINE
  5
A3A
330
A02
100
AcDbEntity
  8
View002
100
AcDbLine
 10
-416
 20
-488.435
 30
0
 11
-416
 21
-447.435
 31
0
  0
LINE
  5
A3B
330
A02
100
AcDbEntity
  8
View002
100
AcDbLine
 10
-386
 20
-488.435
 30
0
 11
-416
 21
-488.435
 31
0
  0
LINE
  5
A3C
330
A02
100
AcDbEntity
  8
View002
100
AcDbLine
 10
-416
 20
-447.435
 30
0
 11
-410
 21
-440.435
 31
0
  0
LINE
  5
A3D
330
A02
100
AcDbEntity
  8
View002
100
AcDbLine
 10
-386
 20
-447.435
 30
0
 11
-386
 21
-488.435
 31
0
  0
LINE
  5
A3E
330
A02
100
AcDbEntity
  8
View002
100
AcDbLine
 10
-410
 20
-440.435
 30
0
 11
-392
 21
-440.435
 31
0
  0
LINE
  5
A3F
330
A02
100
AcDbEntity
  8
View002
100
AcDbLine
 10
-392
 20
-440.435
 30
0
 11
-386
 21
-447.435
 31
0
  0
LINE
  5
A40
330
A02
100
AcDbEntity
  8
View002
100
AcDbLine
 10
10
 20
-200
 30
0
 11
225
 21
-200
 31
0
  0
ARC
  5
A41
330
A02
100
AcDbEntity
  8
View002
100
AcDbCircle
 10
10
 20
-195
 30
0
 40
5
100
AcDbArc
 50
90
 51
-90
  0
LINE
  5
A42
330
A02
100
AcDbEntity
  8
View002
100
AcDbLine
 10
10
 20
-190
 30
0
 11
225
 21
-190
 31
0
  0
ARC
  5
A43
330
A02
100
AcDbEntity
  8
View002
100
AcDbCircle
 10
225
 20
-195
 30
0
 40
5
100
AcDbArc
 50
-90
 51
90
  0
ARC
  5
A44
330
A02
100
AcDbEntity
  8
View002
100
AcDbCircle
 10
245
 20
-145
 30
0
 40
45
100
AcDbArc
 50
-90
 51
7.23753e-14
  0
ARC
  5
A45
330
A02
100
AcDbEntity
  8
View002
100
AcDbCircle
 10
295
 20
-145
 30
0
 40
5
100
AcDbArc
 50
1.10734e-11
 51
180
  0
ARC
  5
A46
330
A02
100
AcDbEntity
  8
View002
100
AcDbCircle
 10
245
 20
-145
 30
0
 40
55
100
AcDbArc
 50
-90
 51
8.88242e-14
  0
ARC
  5
A47
330
A02
100
AcDbEntity
  8
View002
100
AcDbCircle
 10
245
 20
-195
 30
0
 40
5
100
AcDbArc
 50
90
 51
-90
  0
LINE
  5
A48
330
A02
100
AcDbEntity
  8
View002
100
AcDbLine
 10
386
 20
-488.435
 30
0
 11
386
 21
-447.435
 31
0
  0
LINE
  5
A49
330
A02
100
AcDbEntity
  8
View002
100
AcDbLine
 10
416
 20
-488.435
 30
0
 11
386
 21
-488.435
 31
0
  0
LINE
  5
A4A
330
A02
100
AcDbEntity
  8
View002
100
AcDbLine
 10
386
 20
-447.435
 30
0
 11
392
 21
-440.435
 31
0
  0
LINE
  5
A4B
330
A02
100
AcDbEntity
  8
View002
100
AcDbLine
 10
416
 20
-447.435
 30
0
 11
416
 21
-488.435
 31
0
  0
LINE
  5
A4C
330
A02
100
AcDbEntity
  8
View002
100
AcDbLine
 10
392
 20
-440.435
 30
0
 11
410
 21
-440.435
 31
0
  0
LINE
  5
A4D
330
A02
100
AcDbEntity
  8
View002
100
AcDbLine
 10
410
 20
-440.435
 30
0
 11
416
 21
-447.435
 31
0
  0
LINE
  5
A4E
330
A02
100
AcDbEntity
  8
View003
100
AcDbLine
 10
1740.5
 20
-565
 30
0
 11
1740.5
 21
437
 31
0
  0
LINE
  5
A4F
330
A02
100
AcDbEntity
  8
View003
100
AcDbLine
 10
1740.5
 20
-565
 30
0
 11
1259.5
 21
-565
 31
0
  0
LINE
  5
A50
330
A02
100
AcDbEntity
  8
View003
100
AcDbLine
 10
1740.5
 20
437
 30
0
 11
1259.5
 21
437
 31
0
  0
LINE
  5
A51
330
A02
100
AcDbEntity
  8
View003
100
AcDbLine
 10
1259.5
 20
-565
 30
0
 11
1259.5
 21
437
 31
0
  0
LINE
  5
A52
330
A02
100
AcDbEntity
  8
View003
100
AcDbLine
 10
1670.5
 20
-465
 30
0
 11
1680.5
 21
-465
 31
0
  0
ARC
  5
A53
330
A02
100
AcDbEntity
  8
View003
100
AcDbCircle
 10
1680.5
 20
-455
 30
0
 40
10
100
AcDbArc
 50
-90
 51
0
  0
LINE
  5
A54
330
A02
100
AcDbEntity
  8
View003
100
AcDbLine
 10
1690.5
 20
-455
 30
0
 11
1690.5
 21
327
 31
0
  0
ARC
  5
A55
330
A02
100
AcDbEntity
  8
View003
100
AcDbCircle
 10
1680.5
 20
327
 30
0
 40
10
100
AcDbArc
 50
3.25689e-13
 51
90
  0
LINE
  5
A56
330
A02
100
AcDbEntity
  8
View003
100
AcDbLine
 10
1680.5
 20
337
 30
0
 11
1670.5
 21
337
 31
0
  0
ARC
  5
A57
330
A02
100
AcDbEntity
  8
View003
100
AcDbCircle
 10
1670.5
 20
327
 30
0
 40
10
100
AcDbArc
 50
90
 51
180
  0
LINE
  5
A58
330
A02
100
AcDbEntity
  8
View003
100
AcDbLine
 10
1660.5
 20
327
 30
0
 11
1660.5
 21
-455
 31
0
  0
ARC
  5
A59
330
A02
100
AcDbEntity
  8
View003
100
AcDbCircle
 10
1670.5
 20
-455
 30
0
 40
10
100
AcDbArc
 50
180
 51
-90
  0
SPLINE
  5
A5A
330
A02
100
AcDbEntity
  8
View
100
AcDbSpline
210
0
220
0
230
1
 70
8
 71
1
 72
4
 73
2
 74
0
 40
0
 40
0
 40
500
 40
500
 10
1240
 20
564.436
 30
0
 10
740
 20
564.436
 30
0
  0
SPLINE
  5
A5B
330
A02
100
AcDbEntity
  8
View
100
AcDbSpline
210
0
220
0
230
1
 70
8
 71
1
 72
4
 73
2
 74
0
 40
0
 40
0
 40
200
 40
200
 10
740
 20
564.436
 30
0
 10
740
 20
364.436
 30
0
  0
SPLINE
  5
A5C
330
A02
100
AcDbEntity
  8
View
100
AcDbSpline
210
0
220
0
230
1
 70
8
 71
3
 72
29
 73
25
 74
0
 40
3.08851
 40
3.08851
 40
3.08851
 40
3.08851
 40
3.1814
 40
3.1814
 40
3.1814
 40
3.2743
 40
3.2743
 40
3.2743
 40
3.36719
 40
3.36719
 40
3.36719
 40
3.46008
 40
3.46008
 40
3.46008
 40
3.55298
 40
3.55298
 40
3.55298
 40
3.64587
 40
3.64587
 40
3.64587
 40
3.73877
 40
3.73877
 40
3.73877
 40
3.83166
 40
3.83166
 40
3.83166
 40
3.83166
 10
1040
 20
-545.436
 30
0
 10
1042.12
 20
-505.574
 30
0
 10
1042.44
 20
-465.273
 30
0
 10
1040.89
 20
-424.779
 30
0
 10
1039.33
 20
-384.285
 30
0
 10
1035.89
 20
-343.598
 30
0
 10
1030.54
 20
-302.982
 30
0
 10
1025.18
 20
-262.367
 30
0
 10
1017.91
 20
-221.822
 30
0
 10
1008.73
 20
-181.62
 30
0
 10
999.543
 20
-141.417
 30
0
 10
988.45
 20
-101.557
 30
0
 10
975.507
 20
-62.3068
 30
0
 10
962.567
 20
-23.0558
 30
0
 10
947.777
 20
15.585
 30
0
 10
931.247
 20
53.3654
 30
0
 10
914.719
 20
91.1467
 30
0
 10
896.452
 20
128.067
 30
0
 10
876.599
 20
163.902
 30
0
 10
856.747
 20
199.738
 30
0
 10
835.31
 20
234.489
 30
0
 10
812.476
 20
267.967
 30
0
 10
789.642
 20
301.446
 30
0
 10
765.412
 20
333.651
 30
0
 10
740
 20
364.436
 30
0
  0
SPLINE
  5
A5D
330
A02
100
AcDbEntity
  8
View
100
AcDbSpline
210
0
220
0
230
1
 70
8
 71
1
 72
4
 73
2
 74
0
 40
0
 40
0
 40
19
 40
19
 10
1040
 20
-545.436
 30
0
 10
1040
 20
-564.436
 30
0
  0
SPLINE
  5
A5E
330
A02
100
AcDbEntity
  8
View
100
AcDbSpline
210
0
220
0
230
1
 70
8
 71
1
 72
4
 73
2
 74
0
 40
0
 40
0
 40
200
 40
200
 10
1040
 20
-564.436
 30
0
 10
1240
 20
-564.436
 30
0
  0
SPLINE
  5
A5F
330
A02
100
AcDbEntity
  8
View
100
AcDbSpline
210
0
220
0
230
1
 70
8
 71
1
 72
4
 73
2
 74
0
 40
0
 40
0
 40
1128.87
 40
1128.87
 10
1240
 20
-564.436
 30
0
 10
1240
 20
564.436
 30
0
  0
ENDSEC
  0
SECTION
  2
OBJECTS
  0
DICTIONARY
  5
F000
330
0
100
AcDbDictionary
  3
ACAD_GROUP
350
F001
  0
DICTIONARY
  5
F001
330
F000
100
AcDbDictionary
  0
ENDSEC
  0
EOF